<svg id="ef774029-2ca4-496b-96bb-5fe1e32c90e7" data-name="1e9382cc-8884-4cfa-9ac6-9bdbd201d075" xmlns="http://www.w3.org/2000/svg" viewBox="0 0 11.86 11.86"><title>icon-linkedin</title><path id="0cc84148-d1f6-424e-9a87-08efe95f781f" data-name="LinkedIn (alt)" d="M11,1.65H0.89A0.86,0.86,0,0,0,0,2.5V12.66a0.86,0.86,0,0,0,.88.85H11a0.86,0.86,0,0,0,.88-0.85V2.5A0.86,0.86,0,0,0,11,1.65ZM3.61,11.58H1.82V6.22H3.61v5.35ZM2.72,5.49h0a0.93,0.93,0,1,1,0-1.85A0.93,0.93,0,1,1,2.72,5.49Zm7.35,6.09H8.28V8.71a1,1,0,0,0-1.83-.56,1.2,1.2,0,0,0-.06.43v3H4.6s0-4.85,0-5.35H6.39V7A1.78,1.78,0,0,1,8,6.1c1.18,0,2.06.76,2.06,2.41v3.07h0ZM6.38,7V7h0Z" transform="translate(-0.02 -1.65)"/></svg>